<svg xmlns="http://www.w3.org/2000/svg" xmlns:xlink="http://www.w3.org/1999/xlink" width="516" height="128" viewBox="0 0 516 128">
  <defs>
    <path id="monogram-&amp;-wordmark---horizontal-a" d="M63.5312664,0 C63.690563,0 63.8498595,0.0276837757 64.0006407,0.0799257394 C64.2412739,-0.00267907506 64.5031956,-0.020390738 64.752491,0.0288744757 C65.0017864,0.0782885268 65.2380151,0.194530617 65.4303455,0.362716996 C70.4779172,4.78914435 78.8158067,10.6262536 87.6267409,15.3046628 C96.4378219,19.9830721 105.785226,23.4716743 112.581976,23.4716743 C112.936686,23.4716743 113.289781,23.6075629 113.555227,23.8460006 C113.820819,24.0844383 113.996265,24.4234901 114.039136,24.7804025 C118.695029,63.6249586 106.238903,91.2151723 80.8416156,114.658672 C100.801789,92.9285214 110.176262,67.2977523 106.039188,32.7804025 C105.996318,32.4233413 105.820727,32.0842895 105.555138,31.8458518 C105.289549,31.6074141 104.936459,31.4716743 104.581606,31.4716743 C97.784941,31.4716743 88.4379482,27.9830721 79.6271247,23.3046628 C73.9749617,20.3034528 68.5174056,16.8254086 63.9983073,13.5488325 L63.9992659,128 C63.7442967,128 63.4897354,127.930542 63.2683774,127.802308 L63.1398094,127.718399 C60.9809029,126.137361 58.8840512,124.542086 56.8507779,122.929976 L56.0001698,122.251159 L55.9519562,122.2129 C55.1184725,121.543788 54.2959119,120.871729 53.4843822,120.196539 C53.341521,120.077256 53.1989541,119.95826 53.0567299,119.839165 C52.8793811,119.691079 52.7026192,119.542465 52.526391,119.393696 C52.4193333,119.302901 52.3124188,119.212422 52.2057018,119.121887 C51.9934515,118.942236 51.7820682,118.762014 51.5714671,118.581561 C51.4483265,118.475634 51.325297,118.369909 51.2025361,118.264104 C51.0576632,118.139654 50.91336,118.014849 50.7694305,117.889932 C50.5921459,117.735656 50.4151337,117.581364 50.2386915,117.4269 C50.0936292,117.300315 49.9493607,117.173564 49.805476,117.046696 C49.6779155,116.933816 49.5501013,116.820759 49.422592,116.707608 C49.2342038,116.540837 49.0469947,116.373916 48.8604488,116.206789 C48.7601042,116.116488 48.6596443,116.026254 48.5593777,115.935959 C48.384014,115.778437 48.2096157,115.620668 48.0358075,115.462713 C47.8903286,115.330105 47.7447538,115.1973 47.5995962,115.064363 C47.1574699,114.65985 46.7198228,114.254282 46.2860553,113.84745 C45.713349,113.309919 45.1473565,112.77053 44.588178,112.228854 L44.5453953,112.187778 C44.1165833,111.772038 43.691784,111.354951 43.27102,110.936478 C43.1341699,110.799996 42.9974415,110.66344 42.8611425,110.526735 C42.4079916,110.072607 41.9598402,109.61672 41.5164598,109.159143 C41.4600309,109.100539 41.4035588,109.042151 41.3471645,108.983736 C41.1735288,108.804248 41.0007359,108.62424 40.82868,108.443968 C40.7103973,108.319671 40.5925063,108.195662 40.474964,108.071527 C40.3367297,107.925903 40.1991226,107.779895 40.0619976,107.633712 C39.9545691,107.518827 39.8467854,107.403498 39.7393017,107.288059 C39.5758483,107.112865 39.4138553,106.93789 39.2525509,106.762662 C39.1538114,106.655042 39.0550565,106.547387 38.9565615,106.439635 C38.7913218,106.259221 38.6269185,106.078297 38.4632474,105.8971 C38.3747241,105.798744 38.2862465,105.700475 38.1979841,105.602125 C38.0585247,105.447079 37.919804,105.291705 37.7816201,105.136128 C37.6432167,104.979956 37.505135,104.823684 37.3675946,104.667207 C37.2394081,104.521718 37.1119267,104.375973 36.9849146,104.230048 C36.8921317,104.123104 36.7993475,104.01612 36.7068155,103.909038 C36.5580242,103.737195 36.4101182,103.56503 36.2628635,103.392613 C36.168034,103.281238 36.0734101,103.170024 35.979057,103.058706 C34.9213805,101.811182 33.897801,100.550184 32.9087731,99.2750843 C32.8517441,99.2012376 32.7949495,99.1278213 32.7382694,99.0543582 C32.6685618,98.9643314 32.5989019,98.8737486 32.529416,98.7830944 C32.3648509,98.5680767 32.2012923,98.3530189 32.0387117,98.1375562 C31.9383353,98.0048461 31.8385519,97.8719594 31.7391403,97.7389182 C31.6329338,97.5964694 31.5270757,97.4540566 31.4216431,97.3114659 C31.2726887,97.1103256 31.124728,96.9087153 30.9776172,96.7067472 C30.9279823,96.6382947 30.8780796,96.5696086 30.8282753,96.5008811 C30.6647355,96.2755089 30.5026823,96.0499804 30.3416857,95.8240024 C30.284605,95.7435785 30.2273032,95.6629041 30.170136,95.5821722 C30.0473504,95.409076 29.9254439,95.2357798 29.8041569,95.0622178 C29.6766619,94.8794726 29.5496213,94.6964019 29.4232692,94.513034 C29.3662341,94.4305601 29.3096657,94.3482031 29.2532362,94.265786 C29.0981732,94.0390168 28.9439148,93.8117301 28.7907103,93.5839838 C28.6995338,93.4487391 28.6087612,93.3130829 28.5183623,93.177263 C28.4262531,93.0385815 28.3344848,92.8999515 28.2431053,92.7611505 C28.1578412,92.6319269 28.073237,92.5027565 27.9889693,92.3734374 C27.8417571,92.1472374 27.6952423,91.9203578 27.5497618,91.693018 C27.4799809,91.5842554 27.4109761,91.4759494 27.3422057,91.3675387 C27.2870456,91.2803009 27.2316849,91.192722 27.1764772,91.1050746 C26.8536847,90.5928857 26.5363668,90.0784776 26.2242998,89.561682 C26.1175461,89.3846211 26.0111769,89.2071694 25.9054259,89.0294351 C25.3538732,88.1026942 24.8195864,87.1688025 24.302258,86.2269512 C24.2286819,86.0927419 24.1552153,85.9582001 24.0820945,85.8234953 C23.9700417,85.6173245 23.8588368,85.4105823 23.748445,85.203455 C23.6915723,85.0964923 23.6349476,84.9897416 23.5785387,84.8828883 C23.4871321,84.7099921 23.3962055,84.5364083 23.3058476,84.362553 C23.2230409,84.2029765 23.1409156,84.0438189 23.0592663,83.8844332 C22.9793541,83.7286863 22.8996822,83.5720469 22.8204695,83.4151865 C22.7341312,83.2439713 22.6484351,83.0729324 22.5632844,82.9016299 C22.4965925,82.767703 22.4302596,82.6334227 22.3642614,82.49898 C22.2522852,82.2706386 22.1412602,82.0420443 22.0312012,81.8129789 C21.9894218,81.7262591 21.9478121,81.6392994 21.9063415,81.5522716 C21.8057138,81.3408672 21.7058556,81.129191 21.606819,80.9171112 C21.5413845,80.7772174 21.4764362,80.6371928 21.4118457,80.4969918 C21.3117952,80.2795923 21.2126315,80.0620619 21.1143275,79.8441053 C21.0660223,79.7372292 21.0180211,79.6302403 20.9702269,79.5231485 C20.8846785,79.3312398 20.7996763,79.1389591 20.7153403,78.9463457 C20.652403,78.8028243 20.5899046,78.6590538 20.527777,78.5150975 C20.4430441,78.3185437 20.3590308,78.1219349 20.275708,77.9249787 C20.2172109,77.7869205 20.1590415,77.6484446 20.1012129,77.5097966 C20.0335139,77.3472702 19.9662996,77.1847647 19.899553,77.0220222 C19.6917145,76.5154795 19.4883379,76.0062415 19.2895212,75.4946668 C19.0302776,74.8274058 18.7788179,74.1564613 18.5351579,73.4814615 L18.5127119,73.4194001 C18.4355212,73.2050604 18.3591166,72.9903119 18.2834995,72.7751518 C18.2441575,72.6630219 18.2048899,72.5505695 18.1658373,72.4380046 C18.1070329,72.2686895 18.0489301,72.099562 17.9913118,71.93018 C17.9293219,71.7477656 17.8677706,71.564874 17.8067833,71.381685 C17.7662131,71.2600034 17.725938,71.1381472 17.6859121,71.0161591 C17.6028458,70.762818 17.5208458,70.5090653 17.4399222,70.2547405 C17.4081581,70.1550877 17.3765668,70.0551939 17.3451415,69.9552118 C17.2718814,69.7219575 17.199489,69.4882858 17.128001,69.2541303 C17.0878623,69.122823 17.0482226,68.9919056 17.0088652,68.8608367 C16.9430652,68.6415459 16.8779045,68.4214859 16.8135383,68.2009978 C16.7646366,68.0336455 16.7162605,67.8661162 16.6683423,67.6983395 C16.6233835,67.5407643 16.5788098,67.3830678 16.5346401,67.2251524 C16.477711,67.0217785 16.4214137,66.8177369 16.3657897,66.6133289 C16.3231883,66.4566189 16.2810978,66.3002847 16.2394007,66.1437359 C16.1905571,65.9605086 16.1422187,65.7767014 16.0944217,65.5925978 C16.0439656,65.3981061 15.9940438,65.2031601 15.9447279,65.0078812 C15.9050476,64.8509004 15.8658295,64.6938405 15.8270028,64.5365648 C15.7531337,64.2372028 15.680643,63.9370406 15.6095742,63.6360908 C15.5960455,63.5789391 15.5826518,63.5219766 15.569309,63.4649858 C15.5089376,63.2069874 15.4495934,62.9484811 15.3912944,62.6893925 C15.3616732,62.5578798 15.3324721,62.4267653 15.3035384,62.2955016 C15.2513117,62.0584399 15.199859,61.8205653 15.1492824,61.5821994 C15.1264344,61.4746404 15.1038926,61.3674651 15.0815278,61.2601903 C15.0403959,61.0627788 14.9997593,60.864645 14.9597253,60.6661716 C14.6500861,59.1312011 14.3765121,57.5758938 14.1394426,55.9994929 C14.1249639,55.9031202 14.1106593,55.807021 14.0964902,55.7108433 C14.0577587,55.4480382 14.0199918,55.1842071 13.9832424,54.9197848 C13.9624636,54.7701796 13.9420964,54.6211169 13.9220521,54.4718662 C13.8976082,54.2899441 13.8736146,54.1074235 13.8501032,53.9246212 C13.82725,53.7468479 13.804914,53.5693915 13.7830316,53.3916696 C13.7573866,53.1834787 13.7322897,52.9742009 13.7078206,52.7645543 C13.6855675,52.5738088 13.6639003,52.3834349 13.64275,52.1927566 C13.6182723,51.9721622 13.5944316,51.7505582 13.5712876,51.5285425 C13.549495,51.3194068 13.5284042,51.110831 13.5079272,50.9018915 C13.4963198,50.7835199 13.484898,50.6648438 13.473674,50.5460503 C13.449937,50.2947537 13.4271024,50.043199 13.4051528,49.7911171 C13.3911714,49.6306024 13.3775558,49.4698982 13.3642994,49.3089797 C13.3459414,49.0860862 13.3282475,48.8625152 13.3112455,48.6385299 C13.2979455,48.4633643 13.2850719,48.2879371 13.2726221,48.1122554 C13.2569654,47.8912703 13.2419903,47.6701065 13.2276852,47.4485391 C13.2159612,47.2669826 13.2047082,47.08546 13.1939042,46.9036663 C13.1840527,46.7378747 13.1745405,46.5712794 13.165405,46.4044564 C13.1015857,45.2391187 13.0561399,44.0625035 13.0292322,42.8744967 C13.0049556,41.8025616 12.99577,40.7215802 13.0017869,39.6311306 C13.0031307,39.3876561 13.00523,39.143912 13.0080873,38.8996944 C13.0101123,38.7266713 13.0125112,38.5538139 13.0152892,38.3807191 C13.0185101,38.1799625 13.0222518,37.978382 13.0265067,37.7764794 C13.0314137,37.543645 13.0370054,37.3102879 13.0432814,37.0765004 C13.0474754,36.9202863 13.0519502,36.764702 13.0567276,36.6089269 C13.0652692,36.3303714 13.0748114,36.0503097 13.0853293,35.769631 C13.0912504,35.6116133 13.0974538,35.454077 13.1039642,35.2963464 C13.1140701,35.0515207 13.1249361,34.8057588 13.1365457,34.5595245 C13.1456912,34.3655121 13.1553023,34.1711614 13.1653759,33.9765162 C13.178255,33.7277147 13.1918712,33.4787166 13.2062425,33.2292364 C13.2177506,33.0294151 13.2297388,32.8293966 13.2422114,32.629068 C13.2561905,32.4045923 13.2707804,32.1796458 13.28598,31.9543082 C13.3005293,31.7385577 13.3156345,31.5225397 13.3312989,31.3061622 C13.3501674,31.0456038 13.3697929,30.7851593 13.3902268,30.5241937 C13.4021743,30.3715472 13.4143926,30.2188533 13.4268872,30.0659808 C13.4494797,29.7896332 13.4729549,29.5128752 13.4973336,29.2355319 C13.5141713,29.0439038 13.5314595,28.8518561 13.5491802,28.6595277 C13.5685784,28.449084 13.5884128,28.2390779 13.6087619,28.028737 C13.6275435,27.8345195 13.6467563,27.6401687 13.6664078,27.445532 C13.6941467,27.1708704 13.7228082,26.8951041 13.7523483,26.6187635 C13.8175875,26.0083949 13.8870523,25.3958111 13.960812,24.7804025 C14.0036821,24.4233413 14.1792731,24.0842895 14.4448619,23.8458518 C14.7104507,23.6074141 15.0635414,23.4716743 15.4183938,23.4716743 C22.2150589,23.4716743 31.5620517,19.9830721 40.3728752,15.3046628 C49.1836987,10.6262536 57.5216303,4.78914435 62.5689917,0.362716996 C62.8332592,0.130977003 63.1812113,0 63.5306316,0 L63.5312664,0 Z"/>
  </defs>
  <g fill="none" fill-rule="evenodd">
    <path fill="#000" d="M16.3746835,55.6455696 C23.7940928,55.6455696 29.3822785,54.3459916 33.1392405,51.7468354 C36.8962025,49.1476793 38.7746835,45.2725738 38.7746835,40.121519 C38.7746835,37.5696203 38.2075949,35.2776371 37.0734177,33.2455696 C35.9392405,31.2135021 33.8126582,29.6067511 30.6936709,28.4253165 C34.4742616,26.156962 36.364557,23.0616034 36.364557,19.1392405 C36.364557,16.5400844 35.8329114,14.3544304 34.7696203,12.5822785 C33.7063291,10.8101266 32.2295359,9.38059072 30.3392405,8.29367089 C28.4489451,7.20675105 26.1924051,6.43881857 23.5696203,5.98987342 C20.9468354,5.54092827 18.0759494,5.3164557 14.956962,5.3164557 C12.6413502,5.3164557 10.1367089,5.42278481 7.44303797,5.63544304 C4.74936709,5.84810127 2.26835443,6.16708861 0,6.59240506 L0,6.59240506 L0,54.2278481 C2.88270042,54.8421941 5.65907173,55.2320675 8.32911392,55.3974684 C10.9991561,55.5628692 13.6810127,55.6455696 16.3746835,55.6455696 Z M16.1620253,25.164557 L10.7746835,25.164557 L10.7746835,14.4607595 C11.6253165,14.3662447 12.5940928,14.307173 13.6810127,14.2835443 C14.7679325,14.2599156 15.7839662,14.2481013 16.7291139,14.2481013 C19.6590717,14.2481013 21.8801688,14.649789 23.3924051,15.4531646 C24.9046414,16.2565401 25.6607595,17.6506329 25.6607595,19.635443 C25.6607595,21.5729958 24.92827,22.978903 23.4632911,23.8531646 C21.9983122,24.7274262 19.564557,25.164557 16.1620253,25.164557 L16.1620253,25.164557 Z M16.5164557,46.5721519 C15.3822785,46.5721519 14.342616,46.5485232 13.3974684,46.5012658 C12.4523207,46.4540084 11.5780591,46.3831224 10.7746835,46.2886076 L10.7746835,46.2886076 L10.7746835,33.6 L17.721519,33.6 C20.8877637,33.6 23.321519,34.0843882 25.0227848,35.0531646 C26.7240506,36.0219409 27.5746835,37.6405063 27.5746835,39.9088608 C27.5746835,42.4607595 26.5586498,44.2092827 24.5265823,45.1544304 C22.4945148,46.0995781 19.8244726,46.5721519 16.5164557,46.5721519 Z M52.1721519,13.1848101 C53.8734177,13.1848101 55.350211,12.6295359 56.6025316,11.5189873 C57.8548523,10.4084388 58.4810127,8.88438819 58.4810127,6.94683544 C58.4810127,5.0092827 57.8548523,3.48523207 56.6025316,2.37468354 C55.350211,1.26413502 53.8734177,0.708860759 52.1721519,0.708860759 C50.4708861,0.708860759 48.9940928,1.26413502 47.7417722,2.37468354 C46.4894515,3.48523207 45.8632911,5.0092827 45.8632911,6.94683544 C45.8632911,8.88438819 46.4894515,10.4084388 47.7417722,11.5189873 C48.9940928,12.6295359 50.4708861,13.1848101 52.1721519,13.1848101 Z M57.4886076,55.0075949 L57.4886076,17.721519 L46.9265823,17.721519 L46.9265823,55.0075949 L57.4886076,55.0075949 Z M81.8025316,55.8582278 C84.0708861,55.8582278 85.9848101,55.6691983 87.5443038,55.2911392 C89.1037975,54.9130802 90.521519,54.464135 91.7974684,53.9443038 L91.7974684,53.9443038 L90.3088608,45.721519 C89.3164557,46.0995781 88.2177215,46.3949367 87.0126582,46.6075949 C85.8075949,46.8202532 84.6379747,46.9265823 83.5037975,46.9265823 C81.1409283,46.9265823 79.5696203,46.2649789 78.7898734,44.9417722 C78.0101266,43.6185654 77.6202532,41.8464135 77.6202532,39.6253165 L77.6202532,39.6253165 L77.6202532,26.5113924 L90.3088608,26.5113924 L90.3088608,17.721519 L77.6202532,17.721519 L77.6202532,6.73417722 L67.0582278,8.43544304 L67.0582278,39.7670886 C67.0582278,42.1772152 67.2827004,44.3746835 67.7316456,46.3594937 C68.1805907,48.3443038 68.9721519,50.0337553 70.1063291,51.4278481 C71.2405063,52.8219409 72.7527426,53.9088608 74.643038,54.6886076 C76.5333333,55.4683544 78.9198312,55.8582278 81.8025316,55.8582278 Z M115.898734,55.0075949 C117.080169,51.4160338 118.202532,47.8481013 119.265823,44.3037975 C120.329114,40.7594937 121.333333,37.1915612 122.278481,33.6 C123.223629,37.1915612 124.263291,40.7594937 125.397468,44.3037975 C126.531646,47.8481013 127.689451,51.4160338 128.870886,55.0075949 L128.870886,55.0075949 L137.093671,55.0075949 C137.944304,53.0227848 138.877637,50.6599156 139.893671,47.9189873 C140.909705,45.1780591 141.949367,42.1890295 143.012658,38.9518987 C144.075949,35.7147679 145.162869,32.2886076 146.273418,28.6734177 C147.383966,25.0582278 148.459072,21.4075949 149.498734,17.721519 L149.498734,17.721519 L138.511392,17.721519 C138.133333,19.4227848 137.719831,21.2776371 137.270886,23.2860759 C136.821941,25.2945148 136.349367,27.3620253 135.853165,29.4886076 C135.356962,31.6151899 134.825316,33.7535865 134.258228,35.9037975 C133.691139,38.0540084 133.124051,40.121519 132.556962,42.1063291 C131.942616,40.0270042 131.351899,37.9004219 130.78481,35.7265823 C130.217722,33.5527426 129.674262,31.414346 129.15443,29.3113924 C128.634599,27.2084388 128.138397,25.1763713 127.665823,23.2151899 C127.193249,21.2540084 126.767932,19.4227848 126.389873,17.721519 L126.389873,17.721519 L118.734177,17.721519 C118.356118,19.4227848 117.918987,21.2540084 117.422785,23.2151899 C116.926582,25.1763713 116.406751,27.2084388 115.863291,29.3113924 C115.319831,31.414346 114.752743,33.5527426 114.162025,35.7265823 C113.571308,37.9004219 112.968776,40.0270042 112.35443,42.1063291 C111.787342,40.121519 111.232068,38.0540084 110.688608,35.9037975 C110.145148,33.7535865 109.625316,31.6151899 109.129114,29.4886076 C108.632911,27.3620253 108.160338,25.2945148 107.711392,23.2860759 C107.262447,21.2776371 106.848945,19.4227848 106.470886,17.721519 L106.470886,17.721519 L95.3417722,17.721519 C96.3814346,21.4075949 97.4565401,25.0582278 98.5670886,28.6734177 C99.6776371,32.2886076 100.764557,35.7147679 101.827848,38.9518987 C102.891139,42.1890295 103.918987,45.1780591 104.911392,47.9189873 C105.903797,50.6599156 106.825316,53.0227848 107.675949,55.0075949 L107.675949,55.0075949 L115.898734,55.0075949 Z M168,55.7873418 C171.827848,55.7873418 175.088608,55.5628692 177.782278,55.1139241 C180.475949,54.6649789 182.578903,54.2751055 184.091139,53.9443038 L184.091139,53.9443038 L184.091139,31.9696203 C184.091139,29.6540084 183.831224,27.5510549 183.311392,25.6607595 C182.791561,23.7704641 181.905485,22.1637131 180.653165,20.8405063 C179.400844,19.5172996 177.735021,18.5012658 175.655696,17.7924051 C173.576371,17.0835443 170.977215,16.7291139 167.858228,16.7291139 C166.629536,16.7291139 165.412658,16.7881857 164.207595,16.9063291 C163.002532,17.0244726 161.85654,17.1662447 160.76962,17.3316456 C159.6827,17.4970464 158.678481,17.6860759 157.756962,17.8987342 C156.835443,18.1113924 156.067511,18.3122363 155.453165,18.5012658 L155.453165,18.5012658 L156.8,27.0075949 C158.075949,26.5350211 159.588186,26.1687764 161.336709,25.9088608 C163.085232,25.6489451 164.857384,25.5189873 166.653165,25.5189873 C169.346835,25.5189873 171.237131,26.0624473 172.324051,27.1493671 C173.41097,28.2362869 173.95443,29.6776371 173.95443,31.4734177 L173.95443,31.4734177 L173.95443,32.4658228 C173.292827,32.2767932 172.43038,32.1232068 171.367089,32.0050633 C170.303797,31.8869198 169.08692,31.8278481 167.716456,31.8278481 C165.684388,31.8278481 163.723207,32.028692 161.832911,32.4303797 C159.942616,32.8320675 158.264979,33.4818565 156.8,34.3797468 C155.335021,35.2776371 154.165401,36.4827004 153.291139,37.9949367 C152.416878,39.507173 151.979747,41.350211 151.979747,43.5240506 C151.979747,45.7924051 152.357806,47.7063291 153.113924,49.2658228 C153.870042,50.8253165 154.956962,52.0894515 156.374684,53.0582278 C157.792405,54.0270042 159.481857,54.7240506 161.443038,55.1493671 C163.404219,55.5746835 165.589873,55.7873418 168,55.7873418 Z M168.708861,47.635443 C166.771308,47.635443 165.247257,47.3164557 164.136709,46.678481 C163.02616,46.0405063 162.470886,44.8945148 162.470886,43.2405063 C162.470886,42.3898734 162.659916,41.6810127 163.037975,41.1139241 C163.416034,40.5468354 163.935865,40.0978903 164.597468,39.7670886 C165.259072,39.4362869 166.027004,39.2118143 166.901266,39.0936709 C167.775527,38.9755274 168.708861,38.9164557 169.701266,38.9164557 C170.410127,38.9164557 171.189873,38.9637131 172.040506,39.0582278 C172.891139,39.1527426 173.529114,39.2472574 173.95443,39.3417722 L173.95443,39.3417722 L173.95443,47.3518987 C173.387342,47.4464135 172.631224,47.5172996 171.686076,47.564557 C170.740928,47.6118143 169.748523,47.635443 168.708861,47.635443 Z M204.222785,55.0075949 L204.222785,26.5113924 C204.695359,26.3696203 205.392405,26.2396624 206.313924,26.121519 C207.235443,26.0033755 208.027004,25.9443038 208.688608,25.9443038 C210.153586,25.9443038 211.524051,26.0742616 212.8,26.3341772 C214.075949,26.5940928 215.186498,26.8421941 216.131646,27.078481 L216.131646,27.078481 L217.903797,18.3594937 C217.336709,18.1232068 216.651477,17.9223629 215.848101,17.756962 C215.044726,17.5915612 214.24135,17.449789 213.437975,17.3316456 C212.634599,17.2135021 211.831224,17.1189873 211.027848,17.0481013 C210.224473,16.9772152 209.539241,16.9417722 208.972152,16.9417722 C205.805907,16.9417722 202.935021,17.2371308 200.359494,17.8278481 C197.783966,18.4185654 195.551055,19.0447257 193.660759,19.7063291 L193.660759,19.7063291 L193.660759,55.0075949 L204.222785,55.0075949 Z M240.516456,55.9291139 C241.792405,55.9291139 243.127426,55.8700422 244.521519,55.7518987 C245.915612,55.6337553 247.286076,55.4801688 248.632911,55.2911392 C249.979747,55.1021097 251.267511,54.8776371 252.496203,54.6177215 C253.724895,54.3578059 254.811814,54.0860759 255.756962,53.8025316 L255.756962,53.8025316 L255.756962,0 L245.194937,1.70126582 L245.194937,18.5721519 C244.013502,18.0523207 242.843882,17.6506329 241.686076,17.3670886 C240.52827,17.0835443 239.216878,16.9417722 237.751899,16.9417722 C235.105485,16.9417722 232.75443,17.3907173 230.698734,18.2886076 C228.643038,19.1864979 226.906329,20.4860759 225.488608,22.1873418 C224.070886,23.8886076 222.983966,25.9561181 222.227848,28.3898734 C221.47173,30.8236287 221.093671,33.5527426 221.093671,36.5772152 C221.093671,39.5544304 221.530802,42.2362869 222.405063,44.6227848 C223.279325,47.0092827 224.54346,49.0413502 226.197468,50.7189873 C227.851477,52.3966245 229.883544,53.6843882 232.293671,54.5822785 C234.703797,55.4801688 237.444726,55.9291139 240.516456,55.9291139 Z M240.587342,46.9265823 C237.704641,46.9265823 235.530802,45.9341772 234.065823,43.9493671 C232.600844,41.964557 231.868354,39.3417722 231.868354,36.0810127 C231.868354,29.2759494 234.372996,25.8734177 239.382278,25.8734177 C240.469198,25.8734177 241.544304,26.0151899 242.607595,26.2987342 C243.670886,26.5822785 244.533333,26.9367089 245.194937,27.3620253 L245.194937,27.3620253 L245.194937,46.5721519 C244.675105,46.6666667 244.013502,46.7493671 243.210127,46.8202532 C242.406751,46.8911392 241.532489,46.9265823 240.587342,46.9265823 Z M283.61519,56 C284.938397,56 286.261603,55.9291139 287.58481,55.7873418 C288.908017,55.6455696 290.148523,55.4683544 291.306329,55.2556962 C292.464135,55.043038 293.515612,54.7949367 294.460759,54.5113924 C295.405907,54.2278481 296.162025,53.9443038 296.729114,53.6607595 L296.729114,53.6607595 L295.311392,45.0835443 C294.129958,45.6033755 292.605907,46.0405063 290.739241,46.3949367 C288.872574,46.7493671 286.970464,46.9265823 285.032911,46.9265823 C282.008439,46.9265823 279.598312,46.2886076 277.802532,45.0126582 C276.006751,43.7367089 274.990717,42.0118143 274.75443,39.8379747 L274.75443,39.8379747 L298.713924,39.8379747 C298.761181,39.2708861 298.808439,38.621097 298.855696,37.8886076 C298.902954,37.1561181 298.926582,36.4827004 298.926582,35.8683544 C298.926582,29.5831224 297.390717,24.8219409 294.318987,21.5848101 C291.247257,18.3476793 287.064979,16.7291139 281.772152,16.7291139 C279.503797,16.7291139 277.294515,17.1544304 275.144304,18.0050633 C272.994093,18.8556962 271.091983,20.1080169 269.437975,21.7620253 C267.783966,23.4160338 266.448945,25.4835443 265.432911,27.964557 C264.416878,30.4455696 263.908861,33.3400844 263.908861,36.6481013 C263.908861,39.3890295 264.298734,41.9409283 265.078481,44.3037975 C265.858228,46.6666667 267.063291,48.7105485 268.693671,50.435443 C270.324051,52.1603376 272.379747,53.5189873 274.860759,54.5113924 C277.341772,55.5037975 280.259916,56 283.61519,56 Z M288.718987,32.6075949 L274.75443,32.6075949 C274.896203,31.7097046 275.120675,30.8236287 275.427848,29.9493671 C275.735021,29.0751055 276.172152,28.307173 276.739241,27.6455696 C277.306329,26.9839662 278.01519,26.4523207 278.865823,26.0506329 C279.716456,25.6489451 280.732489,25.4481013 281.913924,25.4481013 C283.142616,25.4481013 284.170464,25.6607595 284.997468,26.0860759 C285.824473,26.5113924 286.509705,27.0548523 287.053165,27.7164557 C287.596624,28.3780591 287.998312,29.1341772 288.258228,29.9848101 C288.518143,30.835443 288.67173,31.7097046 288.718987,32.6075949 L288.718987,32.6075949 Z M317.640506,55.0075949 L317.640506,26.2278481 C318.30211,26.1333333 319.058228,26.0506329 319.908861,25.9797468 C320.759494,25.9088608 321.562869,25.8734177 322.318987,25.8734177 C324.776371,25.8734177 326.454008,26.5822785 327.351899,28 C328.249789,29.4177215 328.698734,31.8278481 328.698734,35.2303797 L328.698734,35.2303797 L328.698734,55.0075949 L339.260759,55.0075949 L339.260759,33.9544304 C339.260759,31.4025316 339.000844,29.0869198 338.481013,27.0075949 C337.961181,24.92827 337.08692,23.1324895 335.858228,21.6202532 C334.629536,20.1080169 332.963713,18.9383966 330.860759,18.1113924 C328.757806,17.2843882 326.123207,16.8708861 322.956962,16.8708861 C319.837975,16.8708861 316.860759,17.0953586 314.025316,17.5443038 C311.189873,17.9932489 308.874262,18.4776371 307.078481,18.9974684 L307.078481,18.9974684 L307.078481,55.0075949 L317.640506,55.0075949 Z" transform="translate(176 36)"/>
    <rect width="128" height="128"/>
    <use fill="#000" xlink:href="#monogram-&amp;-wordmark---horizontal-a"/>
  </g>
</svg>
