<svg xmlns="http://www.w3.org/2000/svg" xmlns:xlink="http://www.w3.org/1999/xlink" width="128" height="128" viewBox="0 0 128 128">
  <defs>
    <path id="monogram-a" d="M63.5312664,0 C63.690563,0 63.8498595,0.0276837757 64.0006407,0.0799257394 C64.2412739,-0.00267907506 64.5031956,-0.020390738 64.752491,0.0288744757 C65.0017864,0.0782885268 65.2380151,0.194530617 65.4303455,0.362716996 C70.4779172,4.78914435 78.8158067,10.6262536 87.6267409,15.3046628 C96.4378219,19.9830721 105.785226,23.4716743 112.581976,23.4716743 C112.936686,23.4716743 113.289781,23.6075629 113.555227,23.8460006 C113.820819,24.0844383 113.996265,24.4234901 114.039136,24.7804025 C118.695029,63.6249586 106.238903,91.2151723 80.8416156,114.658672 C100.801789,92.9285214 110.176262,67.2977523 106.039188,32.7804025 C105.996318,32.4233413 105.820727,32.0842895 105.555138,31.8458518 C105.289549,31.6074141 104.936459,31.4716743 104.581606,31.4716743 C97.784941,31.4716743 88.4379482,27.9830721 79.6271247,23.3046628 C73.9749617,20.3034528 68.5174056,16.8254086 63.9983073,13.5488325 L63.9992659,128 C63.7442967,128 63.4897354,127.930542 63.2683774,127.802308 L63.1398094,127.718399 C60.9809029,126.137361 58.8840512,124.542086 56.8507779,122.929976 L56.0001698,122.251159 L55.9519562,122.2129 C55.1184725,121.543788 54.2959119,120.871729 53.4843822,120.196539 C53.341521,120.077256 53.1989541,119.95826 53.0567299,119.839165 C52.8793811,119.691079 52.7026192,119.542465 52.526391,119.393696 C52.4193333,119.302901 52.3124188,119.212422 52.2057018,119.121887 C51.9934515,118.942236 51.7820682,118.762014 51.5714671,118.581561 C51.4483265,118.475634 51.325297,118.369909 51.2025361,118.264104 C51.0576632,118.139654 50.91336,118.014849 50.7694305,117.889932 C50.5921459,117.735656 50.4151337,117.581364 50.2386915,117.4269 C50.0936292,117.300315 49.9493607,117.173564 49.805476,117.046696 C49.6779155,116.933816 49.5501013,116.820759 49.422592,116.707608 C49.2342038,116.540837 49.0469947,116.373916 48.8604488,116.206789 C48.7601042,116.116488 48.6596443,116.026254 48.5593777,115.935959 C48.384014,115.778437 48.2096157,115.620668 48.0358075,115.462713 C47.8903286,115.330105 47.7447538,115.1973 47.5995962,115.064363 C47.1574699,114.65985 46.7198228,114.254282 46.2860553,113.84745 C45.713349,113.309919 45.1473565,112.77053 44.588178,112.228854 L44.5453953,112.187778 C44.1165833,111.772038 43.691784,111.354951 43.27102,110.936478 C43.1341699,110.799996 42.9974415,110.66344 42.8611425,110.526735 C42.4079916,110.072607 41.9598402,109.61672 41.5164598,109.159143 C41.4600309,109.100539 41.4035588,109.042151 41.3471645,108.983736 C41.1735288,108.804248 41.0007359,108.62424 40.82868,108.443968 C40.7103973,108.319671 40.5925063,108.195662 40.474964,108.071527 C40.3367297,107.925903 40.1991226,107.779895 40.0619976,107.633712 C39.9545691,107.518827 39.8467854,107.403498 39.7393017,107.288059 C39.5758483,107.112865 39.4138553,106.93789 39.2525509,106.762662 C39.1538114,106.655042 39.0550565,106.547387 38.9565615,106.439635 C38.7913218,106.259221 38.6269185,106.078297 38.4632474,105.8971 C38.3747241,105.798744 38.2862465,105.700475 38.1979841,105.602125 C38.0585247,105.447079 37.919804,105.291705 37.7816201,105.136128 C37.6432167,104.979956 37.505135,104.823684 37.3675946,104.667207 C37.2394081,104.521718 37.1119267,104.375973 36.9849146,104.230048 C36.8921317,104.123104 36.7993475,104.01612 36.7068155,103.909038 C36.5580242,103.737195 36.4101182,103.56503 36.2628635,103.392613 C36.168034,103.281238 36.0734101,103.170024 35.979057,103.058706 C34.9213805,101.811182 33.897801,100.550184 32.9087731,99.2750843 C32.8517441,99.2012376 32.7949495,99.1278213 32.7382694,99.0543582 C32.6685618,98.9643314 32.5989019,98.8737486 32.529416,98.7830944 C32.3648509,98.5680767 32.2012923,98.3530189 32.0387117,98.1375562 C31.9383353,98.0048461 31.8385519,97.8719594 31.7391403,97.7389182 C31.6329338,97.5964694 31.5270757,97.4540566 31.4216431,97.3114659 C31.2726887,97.1103256 31.124728,96.9087153 30.9776172,96.7067472 C30.9279823,96.6382947 30.8780796,96.5696086 30.8282753,96.5008811 C30.6647355,96.2755089 30.5026823,96.0499804 30.3416857,95.8240024 C30.284605,95.7435785 30.2273032,95.6629041 30.170136,95.5821722 C30.0473504,95.409076 29.9254439,95.2357798 29.8041569,95.0622178 C29.6766619,94.8794726 29.5496213,94.6964019 29.4232692,94.513034 C29.3662341,94.4305601 29.3096657,94.3482031 29.2532362,94.265786 C29.0981732,94.0390168 28.9439148,93.8117301 28.7907103,93.5839838 C28.6995338,93.4487391 28.6087612,93.3130829 28.5183623,93.177263 C28.4262531,93.0385815 28.3344848,92.8999515 28.2431053,92.7611505 C28.1578412,92.6319269 28.073237,92.5027565 27.9889693,92.3734374 C27.8417571,92.1472374 27.6952423,91.9203578 27.5497618,91.693018 C27.4799809,91.5842554 27.4109761,91.4759494 27.3422057,91.3675387 C27.2870456,91.2803009 27.2316849,91.192722 27.1764772,91.1050746 C26.8536847,90.5928857 26.5363668,90.0784776 26.2242998,89.561682 C26.1175461,89.3846211 26.0111769,89.2071694 25.9054259,89.0294351 C25.3538732,88.1026942 24.8195864,87.1688025 24.302258,86.2269512 C24.2286819,86.0927419 24.1552153,85.9582001 24.0820945,85.8234953 C23.9700417,85.6173245 23.8588368,85.4105823 23.748445,85.203455 C23.6915723,85.0964923 23.6349476,84.9897416 23.5785387,84.8828883 C23.4871321,84.7099921 23.3962055,84.5364083 23.3058476,84.362553 C23.2230409,84.2029765 23.1409156,84.0438189 23.0592663,83.8844332 C22.9793541,83.7286863 22.8996822,83.5720469 22.8204695,83.4151865 C22.7341312,83.2439713 22.6484351,83.0729324 22.5632844,82.9016299 C22.4965925,82.767703 22.4302596,82.6334227 22.3642614,82.49898 C22.2522852,82.2706386 22.1412602,82.0420443 22.0312012,81.8129789 C21.9894218,81.7262591 21.9478121,81.6392994 21.9063415,81.5522716 C21.8057138,81.3408672 21.7058556,81.129191 21.606819,80.9171112 C21.5413845,80.7772174 21.4764362,80.6371928 21.4118457,80.4969918 C21.3117952,80.2795923 21.2126315,80.0620619 21.1143275,79.8441053 C21.0660223,79.7372292 21.0180211,79.6302403 20.9702269,79.5231485 C20.8846785,79.3312398 20.7996763,79.1389591 20.7153403,78.9463457 C20.652403,78.8028243 20.5899046,78.6590538 20.527777,78.5150975 C20.4430441,78.3185437 20.3590308,78.1219349 20.275708,77.9249787 C20.2172109,77.7869205 20.1590415,77.6484446 20.1012129,77.5097966 C20.0335139,77.3472702 19.9662996,77.1847647 19.899553,77.0220222 C19.6917145,76.5154795 19.4883379,76.0062415 19.2895212,75.4946668 C19.0302776,74.8274058 18.7788179,74.1564613 18.5351579,73.4814615 L18.5127119,73.4194001 C18.4355212,73.2050604 18.3591166,72.9903119 18.2834995,72.7751518 C18.2441575,72.6630219 18.2048899,72.5505695 18.1658373,72.4380046 C18.1070329,72.2686895 18.0489301,72.099562 17.9913118,71.93018 C17.9293219,71.7477656 17.8677706,71.564874 17.8067833,71.381685 C17.7662131,71.2600034 17.725938,71.1381472 17.6859121,71.0161591 C17.6028458,70.762818 17.5208458,70.5090653 17.4399222,70.2547405 C17.4081581,70.1550877 17.3765668,70.0551939 17.3451415,69.9552118 C17.2718814,69.7219575 17.199489,69.4882858 17.128001,69.2541303 C17.0878623,69.122823 17.0482226,68.9919056 17.0088652,68.8608367 C16.9430652,68.6415459 16.8779045,68.4214859 16.8135383,68.2009978 C16.7646366,68.0336455 16.7162605,67.8661162 16.6683423,67.6983395 C16.6233835,67.5407643 16.5788098,67.3830678 16.5346401,67.2251524 C16.477711,67.0217785 16.4214137,66.8177369 16.3657897,66.6133289 C16.3231883,66.4566189 16.2810978,66.3002847 16.2394007,66.1437359 C16.1905571,65.9605086 16.1422187,65.7767014 16.0944217,65.5925978 C16.0439656,65.3981061 15.9940438,65.2031601 15.9447279,65.0078812 C15.9050476,64.8509004 15.8658295,64.6938405 15.8270028,64.5365648 C15.7531337,64.2372028 15.680643,63.9370406 15.6095742,63.6360908 C15.5960455,63.5789391 15.5826518,63.5219766 15.569309,63.4649858 C15.5089376,63.2069874 15.4495934,62.9484811 15.3912944,62.6893925 C15.3616732,62.5578798 15.3324721,62.4267653 15.3035384,62.2955016 C15.2513117,62.0584399 15.199859,61.8205653 15.1492824,61.5821994 C15.1264344,61.4746404 15.1038926,61.3674651 15.0815278,61.2601903 C15.0403959,61.0627788 14.9997593,60.864645 14.9597253,60.6661716 C14.6500861,59.1312011 14.3765121,57.5758938 14.1394426,55.9994929 C14.1249639,55.9031202 14.1106593,55.807021 14.0964902,55.7108433 C14.0577587,55.4480382 14.0199918,55.1842071 13.9832424,54.9197848 C13.9624636,54.7701796 13.9420964,54.6211169 13.9220521,54.4718662 C13.8976082,54.2899441 13.8736146,54.1074235 13.8501032,53.9246212 C13.82725,53.7468479 13.804914,53.5693915 13.7830316,53.3916696 C13.7573866,53.1834787 13.7322897,52.9742009 13.7078206,52.7645543 C13.6855675,52.5738088 13.6639003,52.3834349 13.64275,52.1927566 C13.6182723,51.9721622 13.5944316,51.7505582 13.5712876,51.5285425 C13.549495,51.3194068 13.5284042,51.110831 13.5079272,50.9018915 C13.4963198,50.7835199 13.484898,50.6648438 13.473674,50.5460503 C13.449937,50.2947537 13.4271024,50.043199 13.4051528,49.7911171 C13.3911714,49.6306024 13.3775558,49.4698982 13.3642994,49.3089797 C13.3459414,49.0860862 13.3282475,48.8625152 13.3112455,48.6385299 C13.2979455,48.4633643 13.2850719,48.2879371 13.2726221,48.1122554 C13.2569654,47.8912703 13.2419903,47.6701065 13.2276852,47.4485391 C13.2159612,47.2669826 13.2047082,47.08546 13.1939042,46.9036663 C13.1840527,46.7378747 13.1745405,46.5712794 13.165405,46.4044564 C13.1015857,45.2391187 13.0561399,44.0625035 13.0292322,42.8744967 C13.0049556,41.8025616 12.99577,40.7215802 13.0017869,39.6311306 C13.0031307,39.3876561 13.00523,39.143912 13.0080873,38.8996944 C13.0101123,38.7266713 13.0125112,38.5538139 13.0152892,38.3807191 C13.0185101,38.1799625 13.0222518,37.978382 13.0265067,37.7764794 C13.0314137,37.543645 13.0370054,37.3102879 13.0432814,37.0765004 C13.0474754,36.9202863 13.0519502,36.764702 13.0567276,36.6089269 C13.0652692,36.3303714 13.0748114,36.0503097 13.0853293,35.769631 C13.0912504,35.6116133 13.0974538,35.454077 13.1039642,35.2963464 C13.1140701,35.0515207 13.1249361,34.8057588 13.1365457,34.5595245 C13.1456912,34.3655121 13.1553023,34.1711614 13.1653759,33.9765162 C13.178255,33.7277147 13.1918712,33.4787166 13.2062425,33.2292364 C13.2177506,33.0294151 13.2297388,32.8293966 13.2422114,32.629068 C13.2561905,32.4045923 13.2707804,32.1796458 13.28598,31.9543082 C13.3005293,31.7385577 13.3156345,31.5225397 13.3312989,31.3061622 C13.3501674,31.0456038 13.3697929,30.7851593 13.3902268,30.5241937 C13.4021743,30.3715472 13.4143926,30.2188533 13.4268872,30.0659808 C13.4494797,29.7896332 13.4729549,29.5128752 13.4973336,29.2355319 C13.5141713,29.0439038 13.5314595,28.8518561 13.5491802,28.6595277 C13.5685784,28.449084 13.5884128,28.2390779 13.6087619,28.028737 C13.6275435,27.8345195 13.6467563,27.6401687 13.6664078,27.445532 C13.6941467,27.1708704 13.7228082,26.8951041 13.7523483,26.6187635 C13.8175875,26.0083949 13.8870523,25.3958111 13.960812,24.7804025 C14.0036821,24.4233413 14.1792731,24.0842895 14.4448619,23.8458518 C14.7104507,23.6074141 15.0635414,23.4716743 15.4183938,23.4716743 C22.2150589,23.4716743 31.5620517,19.9830721 40.3728752,15.3046628 C49.1836987,10.6262536 57.5216303,4.78914435 62.5689917,0.362716996 C62.8332592,0.130977003 63.1812113,0 63.5306316,0 L63.5312664,0 Z"/>
  </defs>
  <g fill="none" fill-rule="evenodd">
    <rect width="128" height="128"/>
    <use fill="#000" xlink:href="#monogram-a"/>
  </g>
</svg>
